<?xml version="1.0" standalone="no"?>
<!DOCTYPE svg PUBLIC "-//W3C//DTD SVG 20010904//EN"
 "http://www.w3.org/TR/2001/REC-SVG-20010904/DTD/svg10.dtd">
<svg version="1.0" xmlns="http://www.w3.org/2000/svg"
 width="1318.000000pt" height="1108.000000pt" viewBox="0 0 1318.000000 1108.000000"
 preserveAspectRatio="xMidYMid meet">

<g transform="translate(0.000000,1108.000000) scale(0.100000,-0.100000)"
fill="#000000" stroke="none">
<path d="M0 5540 l0 -5540 6590 0 6590 0 0 5540 0 5540 -6590 0 -6590 0 0
-5540z m9350 4040 l0 -430 -90 0 -90 0 0 340 0 340 -3905 0 -3905 0 0 -4280 0
-4280 3905 0 3905 0 0 335 0 335 90 0 90 0 0 -430 0 -430 -4090 0 -4090 0 0
4465 0 4465 4090 0 4090 0 0 -430z m-3520 -2155 l0 -565 -65 0 -65 0 0 40 0
41 -37 -30 c-51 -41 -113 -61 -186 -61 -85 0 -133 17 -191 71 -86 78 -126 183
-126 331 0 48 5 111 11 140 36 168 156 278 306 278 64 0 146 -29 185 -67 l28
-27 0 207 0 207 70 0 70 0 0 -565z m-1802 -22 c111 -291 202 -531 202 -535 0
-5 -32 -8 -70 -8 -64 0 -71 2 -79 23 -4 12 -27 75 -51 140 l-42 117 -225 -2
-225 -3 -34 -95 c-18 -52 -41 -114 -50 -137 l-16 -43 -73 0 -72 0 168 443 c93
243 185 484 205 535 l36 92 62 0 63 0 201 -527z m803 252 c52 -19 93 -55 122
-110 21 -38 22 -54 25 -362 l3 -323 -65 0 -65 0 -3 298 c-3 270 -5 300 -22
328 -28 47 -65 64 -138 64 -79 -1 -127 -27 -176 -97 -21 -30 -22 -38 -22 -312
l0 -281 -65 0 -65 0 0 400 0 401 63 -3 62 -3 3 -48 3 -48 46 41 c75 66 198 89
294 55z m1587 6 c9 -5 12 -26 10 -66 l-3 -58 -65 -2 c-74 -2 -116 -20 -154
-65 l-26 -32 0 -289 0 -289 -70 0 -70 0 0 400 0 400 65 0 65 0 0 -34 c0 -46
12 -51 41 -19 47 50 164 81 207 54z m542 -7 c82 -24 159 -106 188 -199 11 -38
24 -107 28 -152 l6 -83 -271 0 -271 0 0 -28 c0 -44 28 -114 60 -154 84 -101
251 -105 348 -8 l33 32 39 -27 c22 -15 40 -33 40 -39 0 -19 -81 -92 -130 -117
-40 -21 -59 -24 -160 -24 -106 0 -120 2 -172 28 -98 48 -165 142 -188 264 -61
335 166 591 450 507z m448 -26 c5 -18 39 -151 77 -296 38 -145 72 -257 76
-250 6 12 147 463 171 546 9 33 10 33 65 30 l55 -3 91 -292 c50 -161 93 -293
96 -293 4 0 37 123 75 273 37 149 72 282 77 295 7 20 15 22 74 22 59 0 66 -2
61 -17 -5 -17 -175 -601 -211 -726 l-17 -58 -56 3 -55 3 -38 115 c-21 63 -64
195 -95 293 -34 107 -60 173 -65 165 -4 -7 -47 -140 -95 -295 l-88 -283 -56 0
-56 0 -112 388 c-62 213 -112 393 -112 400 0 8 20 12 65 12 64 0 64 0 73 -32z
m-3655 -1960 c94 -236 173 -428 176 -428 3 0 83 193 176 428 l171 427 92 3 92
3 0 -536 0 -535 -72 0 -71 0 6 420 c4 231 6 420 4 420 -2 0 -79 -189 -172
-420 l-170 -420 -55 0 -56 0 -104 258 c-57 141 -135 331 -172 422 l-68 165 7
-422 6 -423 -71 0 -72 0 0 535 0 536 91 -3 91 -3 171 -427z m3277 257 l0 -95
75 0 75 0 0 -55 0 -55 -75 0 -75 0 0 -247 c0 -286 5 -317 55 -333 18 -6 50 -8
69 -4 l36 6 0 -55 c0 -64 -4 -67 -111 -67 -81 0 -123 24 -156 90 -22 43 -23
54 -23 327 l0 283 -75 0 -75 0 0 55 0 55 75 0 75 0 0 95 0 95 65 0 65 0 0 -95z
m-1868 -113 c61 -27 142 -102 169 -158 68 -141 66 -324 -4 -457 -62 -117 -165
-177 -307 -177 -223 0 -360 156 -360 411 0 197 93 344 249 394 65 21 192 15
253 -13z m766 19 c9 -5 12 -26 10 -65 l-3 -57 -67 -3 c-77 -4 -122 -25 -155
-76 -23 -32 -23 -39 -23 -316 l0 -284 -70 0 -70 0 2 398 3 397 65 0 65 0 3
-43 3 -42 25 29 c46 55 168 91 212 62z m539 -6 c138 -41 222 -184 223 -377 l0
-58 -271 0 -272 0 7 -42 c11 -73 53 -145 103 -179 37 -26 59 -33 113 -37 77
-5 132 14 193 67 l37 33 40 -32 40 -32 -26 -31 c-74 -88 -161 -121 -297 -115
-108 5 -164 28 -234 96 -166 161 -138 531 50 661 87 59 193 76 294 46z m1333
-17 c148 -68 218 -207 208 -414 -6 -133 -32 -200 -107 -275 -73 -72 -140 -99
-250 -99 -92 0 -145 16 -211 65 -180 132 -203 481 -42 648 77 80 150 108 267
104 60 -2 94 -10 135 -29z m888 3 c53 -27 97 -87 111 -152 7 -29 11 -171 11
-339 l0 -290 -70 0 -70 0 0 299 c0 294 0 299 -23 332 -30 45 -60 59 -130 59
-73 0 -127 -26 -167 -82 l-30 -41 0 -284 0 -283 -65 0 -65 0 0 400 0 401 63
-3 62 -3 3 -48 3 -48 46 41 c25 22 67 47 92 55 65 21 174 14 229 -14z m-4935
-1973 c94 -236 173 -428 176 -428 3 0 83 193 176 428 l171 427 92 3 92 3 0
-536 0 -535 -72 0 -71 0 6 420 c4 231 6 420 4 420 -2 0 -79 -189 -172 -420
l-170 -420 -55 0 -56 0 -104 258 c-57 141 -135 331 -172 422 l-68 165 7 -422
6 -423 -71 0 -72 0 0 535 0 536 91 -3 91 -3 171 -427z m8187 257 l0 -95 75 0
75 0 0 -55 0 -55 -75 0 -75 0 0 -247 c0 -286 5 -317 55 -333 18 -6 50 -8 69
-4 l36 6 0 -55 c0 -64 -4 -67 -111 -67 -81 0 -123 24 -156 90 -22 43 -23 54
-23 327 l0 283 -75 0 -75 0 0 55 0 55 75 0 75 0 0 95 0 95 65 0 65 0 0 -95z
m-6790 -112 c52 -23 101 -71 127 -122 16 -31 19 -74 24 -316 3 -182 9 -290 17
-308 7 -16 12 -30 12 -33 0 -2 -33 -4 -74 -4 l-75 0 -8 41 -8 42 -32 -27 c-56
-47 -111 -66 -193 -65 -128 0 -204 43 -247 137 -21 45 -25 64 -20 114 14 159
140 238 379 238 l108 0 0 59 c0 101 -62 161 -165 161 -74 0 -135 -33 -160 -87
l-19 -43 -63 0 c-61 0 -63 1 -63 25 0 78 86 162 205 202 59 19 199 12 255 -14z
m856 4 c49 -26 90 -72 110 -124 15 -41 18 -92 22 -355 l4 -308 -71 0 -71 0 0
288 c0 260 -2 291 -19 329 -24 52 -63 73 -136 73 -72 0 -111 -17 -157 -69
l-38 -41 0 -290 0 -290 -70 0 -70 0 0 400 0 400 65 0 65 0 0 -51 0 -51 42 36
c64 55 129 77 218 73 44 -2 88 -10 106 -20z m794 -4 c52 -23 101 -71 127 -122
16 -31 19 -74 24 -316 3 -182 9 -290 17 -308 7 -16 12 -30 12 -33 0 -2 -33 -4
-74 -4 l-75 0 -8 41 -8 42 -32 -27 c-56 -47 -111 -66 -193 -65 -128 0 -204 43
-247 137 -21 45 -25 64 -20 114 14 159 140 238 379 238 l108 0 0 59 c0 101
-62 161 -165 161 -74 0 -135 -33 -160 -87 l-19 -43 -63 0 c-61 0 -63 1 -63 25
0 78 86 162 205 202 59 19 199 12 255 -14z m753 7 c29 -11 67 -34 83 -51 l29
-31 5 44 5 43 63 3 62 3 0 -416 c0 -282 -4 -431 -12 -463 -25 -103 -104 -188
-204 -218 -62 -18 -177 -18 -241 1 -57 17 -139 69 -160 101 -12 18 -10 25 21
59 l33 39 39 -33 c63 -56 116 -74 196 -69 123 9 188 80 188 205 l0 62 -50 -34
c-56 -38 -111 -50 -198 -43 -131 10 -225 102 -267 263 -18 69 -20 202 -4 277
26 122 107 228 202 261 61 22 147 21 210 -3z m877 4 c82 -24 159 -106 188
-199 11 -38 24 -107 28 -152 l6 -83 -271 0 -271 0 0 -28 c0 -44 28 -114 60
-154 84 -101 251 -105 348 -8 l33 32 39 -27 c22 -15 40 -33 40 -39 0 -19 -81
-92 -130 -117 -40 -21 -59 -24 -160 -24 -106 0 -120 2 -172 28 -98 48 -165
142 -188 264 -61 335 166 591 450 507z m883 -18 c26 -14 51 -34 56 -44 28 -47
27 -47 81 1 66 59 135 81 232 75 96 -7 154 -39 194 -106 17 -28 34 -69 38 -89
3 -21 6 -167 6 -325 l0 -288 -70 0 -70 0 0 295 c0 327 -2 338 -63 375 -46 28
-150 28 -197 -1 -83 -51 -88 -76 -89 -396 l-1 -273 -70 0 -70 0 0 293 c0 264
-2 296 -18 326 -26 47 -74 71 -145 71 -74 0 -115 -18 -155 -66 l-32 -39 0
-292 0 -293 -70 0 -70 0 2 398 3 397 62 3 62 3 8 -42 8 -42 34 29 c83 70 243
84 334 30z m1234 19 c138 -41 222 -184 223 -377 l0 -58 -271 0 -272 0 7 -42
c11 -73 53 -145 103 -179 37 -26 59 -33 113 -37 77 -5 132 14 193 67 l37 33
40 -32 40 -32 -26 -31 c-74 -88 -161 -121 -297 -115 -108 5 -164 28 -234 96
-166 161 -138 531 50 661 87 59 193 76 294 46z m881 -14 c53 -27 97 -87 111
-152 7 -29 11 -171 11 -339 l0 -290 -70 0 -70 0 0 299 c0 294 0 299 -23 332
-30 45 -60 59 -130 59 -73 0 -127 -26 -167 -82 l-30 -41 0 -284 0 -283 -65 0
-65 0 0 400 0 401 63 -3 62 -3 3 -48 3 -48 46 41 c25 22 67 47 92 55 65 21
174 14 229 -14z"/>
<path d="M5410 7529 c-74 -43 -111 -133 -112 -275 -1 -112 20 -180 71 -234 62
-65 157 -76 243 -27 72 40 78 59 78 270 l0 186 -32 37 c-18 20 -47 43 -65 50
-49 21 -141 17 -183 -7z"/>
<path d="M3760 7749 c0 -2 -38 -110 -85 -238 -47 -129 -85 -238 -85 -243 0 -4
79 -8 175 -8 96 0 175 3 175 6 0 9 -171 478 -176 483 -2 2 -4 2 -4 0z"/>
<path d="M6775 7541 c-22 -10 -50 -29 -62 -42 -23 -26 -56 -95 -67 -141 l-6
-28 200 0 c227 0 213 -7 185 87 -19 65 -48 101 -99 124 -52 24 -100 24 -151 0z"/>
<path d="M4960 5719 c-72 -22 -132 -93 -154 -184 -15 -62 -8 -198 13 -256 22
-59 78 -121 124 -138 42 -16 124 -13 163 5 49 23 102 89 119 148 17 57 20 204
5 258 -16 55 -70 129 -110 150 -46 23 -115 30 -160 17z"/>
<path d="M6297 5715 c-22 -7 -50 -23 -63 -36 -32 -30 -74 -116 -74 -151 l0
-28 195 0 195 0 0 29 c0 40 -27 111 -53 140 -28 31 -94 61 -132 60 -16 0 -47
-6 -68 -14z"/>
<path d="M7590 5718 c-55 -15 -96 -53 -126 -114 -36 -74 -46 -223 -19 -307 33
-105 109 -167 206 -167 139 0 220 107 222 295 2 116 -20 182 -77 240 -58 57
-128 75 -206 53z"/>
<path d="M4979 3580 c-115 -14 -169 -58 -169 -137 0 -87 53 -135 149 -135 70
0 117 19 165 66 l36 37 0 89 0 90 -57 -1 c-32 -1 -88 -5 -124 -9z"/>
<path d="M6629 3580 c-115 -14 -169 -58 -169 -137 0 -87 53 -135 149 -135 70
0 117 19 165 66 l36 37 0 89 0 90 -57 -1 c-32 -1 -88 -5 -124 -9z"/>
<path d="M7395 3876 c-45 -19 -92 -79 -110 -138 -20 -67 -20 -219 0 -286 40
-133 176 -188 297 -119 72 40 78 59 78 270 l0 186 -31 36 c-18 20 -48 42 -67
50 -43 18 -127 19 -167 1z"/>
<path d="M8245 3881 c-22 -10 -50 -29 -62 -42 -23 -26 -56 -95 -67 -141 l-6
-28 200 0 c227 0 213 -7 185 87 -19 65 -48 101 -99 124 -52 24 -100 24 -151 0z"/>
<path d="M10377 3885 c-22 -7 -50 -23 -63 -36 -32 -30 -74 -116 -74 -151 l0
-28 195 0 195 0 0 29 c0 40 -27 111 -53 140 -28 31 -94 61 -132 60 -16 0 -47
-6 -68 -14z"/>
</g>
</svg>
